<?xml version="1.0" encoding="UTF-8" standalone="no"?>
<svg width="1920" height="1080" viewBox="0 0 1920 1080" xmlns="http://www.w3.org/2000/svg">
<rect width="1920" height="1080" fill="black"/>
<defs>
<linearGradient id="progressGrad" x1="0" y1="0" x2="1" y2="0">
<stop offset="0%" stop-color="#4AB8F9"/><stop offset="100%" stop-color="#7ADFA3"/></linearGradient>
</defs>
<rect x="100" y="120" width="520" height="350" rx="40" fill="#3A3F4C"/>
<path d="M360.00,195.00 A100,100 0 0 1 413.58,379.43 L392.15,345.66 A60,60 0 0 0 360.00,235.00 Z" fill="#3E8DF7"/>
<path d="M413.58,379.43 A100,100 0 0 1 260.00,295.00 L300.00,295.00 A60,60 0 0 0 392.15,345.66 Z" fill="#4AB849"/>
<path d="M260.00,295.00 A100,100 0 0 1 291.55,222.10 L318.93,251.26 A60,60 0 0 0 300.00,295.00 Z" fill="#7B7B7B"/>
<path d="M291.55,222.10 A100,100 0 0 1 360.00,195.00 L360.00,235.00 A60,60 0 0 0 318.93,251.26 Z" fill="#F09A33"/>
<rect x="670" y="120" width="520" height="350" rx="40" fill="#3A3F4C"/>
<text x="930.0" y="295.0" fill="white" font-family="Helvetica, Arial, sans-serif" font-size="140" font-weight="bold" text-anchor="middle">120</text>
<rect x="1240" y="120" width="520" height="350" rx="40" fill="#3A3F4C"/>
<rect x="1310" y="340" width="50" height="60" rx="15" fill="#6B83B3"/>
<rect x="1400" y="280" width="50" height="120" rx="15" fill="#6B83B3"/>
<rect x="1490" y="200" width="50" height="200" rx="15" fill="#6B83B3"/>
<rect x="1580" y="240" width="50" height="160" rx="15" fill="#6B83B3"/>
<rect x="100" y="520" width="520" height="350" rx="40" fill="#3A3F4C"/>
<text x="360.0" y="695.0" fill="white" font-family="Helvetica, Arial, sans-serif" font-size="72" font-weight="bold" text-anchor="middle">Summary</text>
<rect x="670" y="520" width="520" height="350" rx="40" fill="#3A3F4C"/>
<rect x="740" y="775.0" width="40" height="20" fill="white"/>
<line x1="760" y1="775.0" x2="720" y2="705.0" stroke="white" stroke-width="8" stroke-linecap="round"/>
<line x1="760" y1="775.0" x2="800" y2="725.0" stroke="white" stroke-width="8" stroke-linecap="round"/>
<polygon points="800,715.0 840,685.0 815,665.0" fill="white"/>
<rect x="890" y="745.0" width="80" height="12" fill="white"/>
<rect x="960" y="685.0" width="12" height="60" fill="white"/>
<rect x="900" y="757.0" width="8" height="40" fill="white"/>
<rect x="964" y="757.0" width="8" height="40" fill="white"/>
<rect x="1050" y="745.0" width="100" height="12" fill="white"/>
<rect x="1150" y="715.0" width="12" height="50" fill="white"/>
<rect x="1070" y="715.0" width="30" height="30" fill="white"/>
<rect x="1240" y="520" width="520" height="350" rx="40" fill="#3A3F4C"/>
<rect x="1300" y="600" width="400" height="14" rx="7" fill="#444"/>
<rect x="1300" y="600" width="320.0" height="14" rx="7" fill="url(#progressGrad)"/>
<rect x="1300" y="670" width="400" height="14" rx="7" fill="#444"/>
<rect x="1300" y="670" width="200.0" height="14" rx="7" fill="#777"/>
<rect x="1300" y="740" width="400" height="14" rx="7" fill="#444"/>
<rect x="1300" y="740" width="120.0" height="14" rx="7" fill="#777"/>
</svg>