<?xml version="1.0" encoding="UTF-8" standalone="no"?>
<svg width="1920" height="1080" viewBox="0 0 1920 1080" xmlns="http://www.w3.org/2000/svg">
<rect width="1920" height="1080" fill="black"/>
<path d="M960.00,290.00 A250,250 0 0 1 1093.96,751.08 L1040.37,666.65 A150,150 0 0 0 960.00,390.00 Z" fill="#3E8DF7"/>
<path d="M1093.96,751.08 A250,250 0 0 1 710.00,540.00 L810.00,540.00 A150,150 0 0 0 1040.37,666.65 Z" fill="#4AB849"/>
<path d="M710.00,540.00 A250,250 0 0 1 788.86,357.76 L857.32,430.65 A150,150 0 0 0 810.00,540.00 Z" fill="#7B7B7B"/>
<path d="M788.86,357.76 A250,250 0 0 1 960.00,290.00 L960.00,390.00 A150,150 0 0 0 857.32,430.65 Z" fill="#F09A33"/>
<line x1="1219.28" y1="464.67" x2="1257.69" y2="453.51" stroke="#888" stroke-width="2"/>
<text x="1286.50" y="445.14" fill="white" font-family="Helvetica, Arial, sans-serif" font-size="48" text-anchor="middle" alignment-baseline="middle">41%</text>
<line x1="829.93" y1="776.60" x2="810.66" y2="811.66" stroke="#888" stroke-width="2"/>
<text x="796.20" y="837.94" fill="white" font-family="Helvetica, Arial, sans-serif" font-size="48" text-anchor="middle" alignment-baseline="middle">34%</text>
<line x1="712.21" y1="432.77" x2="675.50" y2="416.88" stroke="#888" stroke-width="2"/>
<text x="647.96" y="404.97" fill="white" font-family="Helvetica, Arial, sans-serif" font-size="48" text-anchor="middle" alignment-baseline="middle">13%</text>
<line x1="860.61" y1="288.96" x2="845.88" y2="251.77" stroke="#888" stroke-width="2"/>
<text x="834.84" y="223.88" fill="white" font-family="Helvetica, Arial, sans-serif" font-size="48" text-anchor="middle" alignment-baseline="middle">12%</text>
</svg>