<?xml version="1.0" encoding="UTF-8"?>
<svg width="1920" height="1080" viewBox="0 0 1920 1080" 
     xmlns="http://www.w3.org/2000/svg" xmlns:xlink="http://www.w3.org/1999/xlink">
  <defs>
    <style>
      @import url('https://fonts.googleapis.com/css2?family=Inter:wght@300;400;600;700&amp;display=swap');
      text {
        font-family: 'Inter', 'SF Pro Display', -apple-system, BlinkMacSystemFont, sans-serif;
        fill: #FFFFFF;
      }
    </style>
  </defs>
  <rect width="1920" height="1080" fill="#000000"/>

  <line x1="400" y1="740.0" x2="1520" y2="740.0" 
        stroke="#A1A1AA" stroke-width="2"/>
  <!-- Lamp icon -->
  <g transform="translate(580, 440.0)">
    <circle cx="60" cy="30" r="30" fill="none" stroke="#FFFFFF" stroke-width="3"/>
    <line x1="60" y1="60" x2="60" y2="160" stroke="#FFFFFF" stroke-width="3"/>
    <line x1="30" y1="160" x2="90" y2="160" stroke="#FFFFFF" stroke-width="3"/>
  </g>
  <!-- Chair icon -->
  <g transform="translate(900.0, 440.0)">
    <rect x="30" y="0" width="60" height="10" rx="5" fill="none" stroke="#FFFFFF" stroke-width="3"/>
    <line x1="40" y1="10" x2="40" y2="80" stroke="#FFFFFF" stroke-width="3"/>
    <line x1="80" y1="10" x2="80" y2="80" stroke="#FFFFFF" stroke-width="3"/>
    <line x1="40" y1="80" x2="40" y2="160" stroke="#FFFFFF" stroke-width="3"/>
    <line x1="80" y1="80" x2="80" y2="160" stroke="#FFFFFF" stroke-width="3"/>
  </g>
  <!-- Bed icon -->
  <g transform="translate(1220, 440.0)">
    <rect x="0" y="50" width="180" height="15" rx="7" fill="none" stroke="#FFFFFF" stroke-width="3"/>
    <line x1="20" y1="65" x2="20" y2="140" stroke="#FFFFFF" stroke-width="3"/>
    <line x1="160" y1="65" x2="160" y2="140" stroke="#FFFFFF" stroke-width="3"/>
    <circle cx="45" cy="30" r="15" fill="none" stroke="#FFFFFF" stroke-width="3"/>
  </g>
</svg>
