<?xml version="1.0" encoding="UTF-8"?>
<svg xmlns="http://www.w3.org/2000/svg" width="960" height="540" viewBox="0 0 960 540">
<defs>
  <linearGradient id="bg-progress" x1="0" y1="0" x2="0" y2="1">
    <stop offset="0%" stop-color="#040717" />
    <stop offset="100%" stop-color="#0b1224" />
  </linearGradient>
</defs>
<rect x="0" y="0" width="960" height="540" fill="url(#bg-progress)" />
<rect x="865" y="20" width="75" height="36" fill="#1b2644" stroke="#2f3e62" stroke-width="1.2" rx="14" ry="14" />
<rect x="25" y="20" width="830" height="65" fill="#121d36" stroke="#24324f" stroke-width="1.8" rx="18" ry="18" />
<rect x="25" y="80" width="260" height="4" fill="#38bdf8" stroke="none" stroke-width="0" rx="2" ry="2" />
<rect x="25" y="90" width="910" height="40" fill="#162240" stroke="#24324f" stroke-width="1.5" rx="14" ry="14" />
<rect x="25" y="132" width="910" height="98" fill="#1c2a4b" stroke="#24324f" stroke-width="1.4" rx="20" ry="20" />
<rect x="49" y="150" width="750" height="32" fill="#1c2a4b" stroke="#24324f" stroke-width="1.2" rx="14" ry="14" />
<rect x="803" y="148" width="108" height="38" fill="#38bdf8" stroke="none" stroke-width="0" rx="12" ry="12" />
<rect x="49" y="196" width="862" height="14" fill="#1f2d4a" stroke="none" stroke-width="0" rx="8" ry="8" />
<rect x="49" y="196" width="258.6" height="14" fill="#2563eb" stroke="none" stroke-width="0" rx="8" ry="8" />
<rect x="25" y="248" width="910" height="98" fill="#1c2a4b" stroke="#24324f" stroke-width="1.4" rx="20" ry="20" />
<rect x="49" y="266" width="750" height="32" fill="#1c2a4b" stroke="#24324f" stroke-width="1.2" rx="14" ry="14" />
<rect x="803" y="264" width="108" height="38" fill="#38bdf8" stroke="none" stroke-width="0" rx="12" ry="12" />
<rect x="49" y="312" width="862" height="14" fill="#1f2d4a" stroke="none" stroke-width="0" rx="8" ry="8" />
<rect x="49" y="312" width="431" height="14" fill="#2563eb" stroke="none" stroke-width="0" rx="8" ry="8" />
<rect x="25" y="364" width="910" height="98" fill="#1c2a4b" stroke="#24324f" stroke-width="1.4" rx="20" ry="20" />
<rect x="49" y="382" width="750" height="32" fill="#1c2a4b" stroke="#24324f" stroke-width="1.2" rx="14" ry="14" />
<rect x="803" y="380" width="108" height="38" fill="#38bdf8" stroke="none" stroke-width="0" rx="12" ry="12" />
<rect x="49" y="428" width="862" height="14" fill="#1f2d4a" stroke="none" stroke-width="0" rx="8" ry="8" />
<rect x="49" y="428" width="603.4" height="14" fill="#2563eb" stroke="none" stroke-width="0" rx="8" ry="8" />
<rect x="15" y="505" width="250" height="20" fill="none" stroke="#24324f" stroke-width="1" rx="10" ry="10" />
<rect x="895" y="505" width="50" height="20" fill="none" stroke="#24324f" stroke-width="1" rx="10" ry="10" />
<text x="902.5" y="42.32" fill="#cbd5f5" font-size="12" font-family="Inter, 'Noto Sans JP', sans-serif" text-anchor="middle">Logo</text>
<text x="440" y="58.35" fill="#f8fafc" font-size="16.25" font-family="Inter, 'Noto Sans JP', sans-serif" text-anchor="middle">Title</text>
<text x="480" y="114.32" fill="#cbd5f5" font-size="12" font-family="Inter, 'Noto Sans JP', sans-serif" text-anchor="middle">Subhead</text>
<text x="424" y="170.32" fill="#cbd5f5" font-size="12" font-family="Inter, 'Noto Sans JP', sans-serif" text-anchor="middle">Task 1</text>
<text x="857" y="173.48" fill="#051427" font-size="18" font-family="Inter, 'Noto Sans JP', sans-serif" text-anchor="middle">30%</text>
<text x="424" y="286.32" fill="#cbd5f5" font-size="12" font-family="Inter, 'Noto Sans JP', sans-serif" text-anchor="middle">Task 2</text>
<text x="857" y="289.48" fill="#051427" font-size="18" font-family="Inter, 'Noto Sans JP', sans-serif" text-anchor="middle">45%</text>
<text x="424" y="402.32" fill="#cbd5f5" font-size="12" font-family="Inter, 'Noto Sans JP', sans-serif" text-anchor="middle">Task 3</text>
<text x="857" y="405.48" fill="#051427" font-size="18" font-family="Inter, 'Noto Sans JP', sans-serif" text-anchor="middle">60%</text>
<text x="140" y="519.32" fill="#8aa0c8" font-size="12" font-family="Inter, 'Noto Sans JP', sans-serif" text-anchor="middle">Footer</text>
<text x="920" y="519.32" fill="#8aa0c8" font-size="12" font-family="Inter, 'Noto Sans JP', sans-serif" text-anchor="middle">Page</text>
<title>Progress Cards</title>
</svg>