<?xml version="1.0" encoding="UTF-8"?>
<svg xmlns="http://www.w3.org/2000/svg" width="960" height="540" viewBox="0 0 960 540">
<defs>
  <linearGradient id="bg-statsCompare" x1="0" y1="0" x2="0" y2="1">
    <stop offset="0%" stop-color="#040717" />
    <stop offset="100%" stop-color="#0b1224" />
  </linearGradient>
</defs>
<rect x="0" y="0" width="960" height="540" fill="url(#bg-statsCompare)" />
<rect x="865" y="20" width="75" height="36" fill="#1b2644" stroke="#2f3e62" stroke-width="1.2" rx="14" ry="14" />
<rect x="25" y="20" width="830" height="65" fill="#121d36" stroke="#24324f" stroke-width="1.8" rx="18" ry="18" />
<rect x="25" y="80" width="260" height="4" fill="#38bdf8" stroke="none" stroke-width="0" rx="2" ry="2" />
<rect x="25" y="90" width="910" height="40" fill="#162240" stroke="#24324f" stroke-width="1.5" rx="14" ry="14" />
<rect x="25" y="150" width="910" height="300" fill="#1c2a4b" stroke="#24324f" stroke-width="1.4" rx="20" ry="20" />
<rect x="25" y="150" width="318.5" height="50" fill="#162240" stroke="#24324f" stroke-width="1.4" rx="16" ry="16" />
<rect x="343.5" y="150" width="273" height="50" fill="#1c2a4b" stroke="#24324f" stroke-width="1.2" rx="14" ry="14" />
<rect x="616.5" y="150" width="318.5" height="50" fill="#162240" stroke="#24324f" stroke-width="1.4" rx="16" ry="16" />
<rect x="343.5" y="212.5" width="273" height="37.5" fill="#253558" stroke="#2f3e62" stroke-width="1.2" rx="18" ry="18" />
<rect x="25" y="215.63" width="318.5" height="31.25" fill="#162240" stroke="#24324f" stroke-width="1.4" rx="16" ry="16" />
<rect x="616.5" y="215.63" width="318.5" height="31.25" fill="#162240" stroke="#24324f" stroke-width="1.4" rx="16" ry="16" />
<line x1="41" y1="262.5" x2="919" y2="262.5" stroke="#24324f" stroke-width="1" stroke-linecap="round" />
<rect x="343.5" y="275" width="273" height="37.5" fill="#253558" stroke="#2f3e62" stroke-width="1.2" rx="18" ry="18" />
<rect x="25" y="278.13" width="318.5" height="31.25" fill="#162240" stroke="#24324f" stroke-width="1.4" rx="16" ry="16" />
<rect x="616.5" y="278.13" width="318.5" height="31.25" fill="#162240" stroke="#24324f" stroke-width="1.4" rx="16" ry="16" />
<line x1="41" y1="325" x2="919" y2="325" stroke="#24324f" stroke-width="1" stroke-linecap="round" />
<rect x="343.5" y="337.5" width="273" height="37.5" fill="#253558" stroke="#2f3e62" stroke-width="1.2" rx="18" ry="18" />
<rect x="25" y="340.63" width="318.5" height="31.25" fill="#162240" stroke="#24324f" stroke-width="1.4" rx="16" ry="16" />
<rect x="616.5" y="340.63" width="318.5" height="31.25" fill="#162240" stroke="#24324f" stroke-width="1.4" rx="16" ry="16" />
<line x1="41" y1="387.5" x2="919" y2="387.5" stroke="#24324f" stroke-width="1" stroke-linecap="round" />
<rect x="343.5" y="400" width="273" height="37.5" fill="#253558" stroke="#2f3e62" stroke-width="1.2" rx="18" ry="18" />
<rect x="25" y="403.13" width="318.5" height="31.25" fill="#162240" stroke="#24324f" stroke-width="1.4" rx="16" ry="16" />
<rect x="616.5" y="403.13" width="318.5" height="31.25" fill="#162240" stroke="#24324f" stroke-width="1.4" rx="16" ry="16" />
<rect x="15" y="505" width="250" height="20" fill="none" stroke="#24324f" stroke-width="1" rx="10" ry="10" />
<rect x="895" y="505" width="50" height="20" fill="none" stroke="#24324f" stroke-width="1" rx="10" ry="10" />
<text x="902.5" y="42.32" fill="#cbd5f5" font-size="12" font-family="Inter, 'Noto Sans JP', sans-serif" text-anchor="middle">Logo</text>
<text x="440" y="58.35" fill="#f8fafc" font-size="16.25" font-family="Inter, 'Noto Sans JP', sans-serif" text-anchor="middle">Title</text>
<text x="480" y="114.32" fill="#cbd5f5" font-size="12" font-family="Inter, 'Noto Sans JP', sans-serif" text-anchor="middle">Subhead</text>
<text x="480" y="308.64" fill="#cbd5f5" font-size="24" font-family="Inter, 'Noto Sans JP', sans-serif" text-anchor="middle">Comparison</text>
<text x="184.25" y="179.5" fill="#f8fafc" font-size="12.5" font-family="Inter, 'Noto Sans JP', sans-serif" text-anchor="middle">Current</text>
<text x="480" y="179.5" fill="#cbd5f5" font-size="12.5" font-family="Inter, 'Noto Sans JP', sans-serif" text-anchor="middle">Metric</text>
<text x="775.75" y="179.5" fill="#f8fafc" font-size="12.5" font-family="Inter, 'Noto Sans JP', sans-serif" text-anchor="middle">Future</text>
<text x="480" y="235.57" fill="#cbd5f5" font-size="12" font-family="Inter, 'Noto Sans JP', sans-serif" text-anchor="middle">Metric 1</text>
<text x="184.25" y="235.57" fill="#f8fafc" font-size="12" font-family="Inter, 'Noto Sans JP', sans-serif" text-anchor="middle">45</text>
<text x="775.75" y="235.57" fill="#f8fafc" font-size="12" font-family="Inter, 'Noto Sans JP', sans-serif" text-anchor="middle">68</text>
<text x="480" y="298.07" fill="#cbd5f5" font-size="12" font-family="Inter, 'Noto Sans JP', sans-serif" text-anchor="middle">Metric 2</text>
<text x="184.25" y="298.07" fill="#f8fafc" font-size="12" font-family="Inter, 'Noto Sans JP', sans-serif" text-anchor="middle">45</text>
<text x="775.75" y="298.07" fill="#f8fafc" font-size="12" font-family="Inter, 'Noto Sans JP', sans-serif" text-anchor="middle">68</text>
<text x="480" y="360.57" fill="#cbd5f5" font-size="12" font-family="Inter, 'Noto Sans JP', sans-serif" text-anchor="middle">Metric 3</text>
<text x="184.25" y="360.57" fill="#f8fafc" font-size="12" font-family="Inter, 'Noto Sans JP', sans-serif" text-anchor="middle">45</text>
<text x="775.75" y="360.57" fill="#f8fafc" font-size="12" font-family="Inter, 'Noto Sans JP', sans-serif" text-anchor="middle">68</text>
<text x="480" y="423.07" fill="#cbd5f5" font-size="12" font-family="Inter, 'Noto Sans JP', sans-serif" text-anchor="middle">Metric 4</text>
<text x="184.25" y="423.07" fill="#f8fafc" font-size="12" font-family="Inter, 'Noto Sans JP', sans-serif" text-anchor="middle">45</text>
<text x="775.75" y="423.07" fill="#f8fafc" font-size="12" font-family="Inter, 'Noto Sans JP', sans-serif" text-anchor="middle">68</text>
<text x="140" y="519.32" fill="#8aa0c8" font-size="12" font-family="Inter, 'Noto Sans JP', sans-serif" text-anchor="middle">Footer</text>
<text x="920" y="519.32" fill="#8aa0c8" font-size="12" font-family="Inter, 'Noto Sans JP', sans-serif" text-anchor="middle">Page</text>
<title>Stats Comparison</title>
</svg>