<?xml version="1.0" encoding="UTF-8"?>
<svg xmlns="http://www.w3.org/2000/svg" width="960" height="540" viewBox="0 0 960 540">
<defs>
  <linearGradient id="bg-processList" x1="0" y1="0" x2="0" y2="1">
    <stop offset="0%" stop-color="#040717" />
    <stop offset="100%" stop-color="#0b1224" />
  </linearGradient>
</defs>
<rect x="0" y="0" width="960" height="540" fill="url(#bg-processList)" />
<rect x="865" y="20" width="75" height="36" fill="#1b2644" stroke="#2f3e62" stroke-width="1.2" rx="14" ry="14" />
<rect x="25" y="20" width="830" height="65" fill="#121d36" stroke="#24324f" stroke-width="1.8" rx="18" ry="18" />
<rect x="25" y="80" width="260" height="4" fill="#38bdf8" stroke="none" stroke-width="0" rx="2" ry="2" />
<rect x="25" y="90" width="910" height="40" fill="#162240" stroke="#24324f" stroke-width="1.5" rx="14" ry="14" />
<line x1="73" y1="148" x2="73" y2="446" stroke="#24324f" stroke-width="1" stroke-linecap="round" />
<circle cx="73" cy="166.5" r="12" fill="#38bdf8" stroke="none" stroke-width="1.5" />
<rect x="103" y="149.25" width="820" height="34.5" fill="#253558" stroke="#2f3e62" stroke-width="1.2" rx="18" ry="18" />
<circle cx="73" cy="253.5" r="12" fill="#38bdf8" stroke="none" stroke-width="1.5" />
<rect x="103" y="236.25" width="820" height="34.5" fill="#253558" stroke="#2f3e62" stroke-width="1.2" rx="18" ry="18" />
<circle cx="73" cy="340.5" r="12" fill="#38bdf8" stroke="none" stroke-width="1.5" />
<rect x="103" y="323.25" width="820" height="34.5" fill="#253558" stroke="#2f3e62" stroke-width="1.2" rx="18" ry="18" />
<circle cx="73" cy="427.5" r="12" fill="#38bdf8" stroke="none" stroke-width="1.5" />
<rect x="103" y="410.25" width="820" height="34.5" fill="#253558" stroke="#2f3e62" stroke-width="1.2" rx="18" ry="18" />
<rect x="15" y="505" width="250" height="20" fill="none" stroke="#24324f" stroke-width="1" rx="10" ry="10" />
<rect x="895" y="505" width="50" height="20" fill="none" stroke="#24324f" stroke-width="1" rx="10" ry="10" />
<text x="902.5" y="42.32" fill="#cbd5f5" font-size="12" font-family="Inter, 'Noto Sans JP', sans-serif" text-anchor="middle">Logo</text>
<text x="440" y="58.35" fill="#f8fafc" font-size="16.25" font-family="Inter, 'Noto Sans JP', sans-serif" text-anchor="middle">Title</text>
<text x="480" y="114.32" fill="#cbd5f5" font-size="12" font-family="Inter, 'Noto Sans JP', sans-serif" text-anchor="middle">Subhead</text>
<text x="73" y="171.05" fill="#051427" font-size="13" font-family="Inter, 'Noto Sans JP', sans-serif" text-anchor="middle">1</text>
<text x="73" y="258.05" fill="#051427" font-size="13" font-family="Inter, 'Noto Sans JP', sans-serif" text-anchor="middle">2</text>
<text x="73" y="345.05" fill="#051427" font-size="13" font-family="Inter, 'Noto Sans JP', sans-serif" text-anchor="middle">3</text>
<text x="73" y="432.05" fill="#051427" font-size="13" font-family="Inter, 'Noto Sans JP', sans-serif" text-anchor="middle">4</text>
<text x="140" y="519.32" fill="#8aa0c8" font-size="12" font-family="Inter, 'Noto Sans JP', sans-serif" text-anchor="middle">Footer</text>
<text x="920" y="519.32" fill="#8aa0c8" font-size="12" font-family="Inter, 'Noto Sans JP', sans-serif" text-anchor="middle">Page</text>
<title>Process Checklist</title>
</svg>