<?xml version="1.0" encoding="UTF-8"?>
<svg xmlns="http://www.w3.org/2000/svg" width="960" height="540" viewBox="0 0 960 540">
<defs>
  <linearGradient id="bg-flowChart" x1="0" y1="0" x2="0" y2="1">
    <stop offset="0%" stop-color="#040717" />
    <stop offset="100%" stop-color="#0b1224" />
  </linearGradient>
</defs>
<rect x="0" y="0" width="960" height="540" fill="url(#bg-flowChart)" />
<rect x="865" y="20" width="75" height="36" fill="#1b2644" stroke="#2f3e62" stroke-width="1.2" rx="14" ry="14" />
<rect x="25" y="20" width="830" height="65" fill="#121d36" stroke="#24324f" stroke-width="1.8" rx="18" ry="18" />
<rect x="25" y="80" width="260" height="4" fill="#38bdf8" stroke="none" stroke-width="0" rx="2" ry="2" />
<rect x="25" y="90" width="910" height="40" fill="#162240" stroke="#24324f" stroke-width="1.5" rx="14" ry="14" />
<rect x="25" y="160" width="209.5" height="180" fill="#162240" stroke="#24324f" stroke-width="1.4" rx="16" ry="16" />
<line x1="240.5" y1="250" x2="258.5" y2="250" stroke="#2f3e62" stroke-width="2" stroke-linecap="round" />
<rect x="258.5" y="160" width="209.5" height="180" fill="#162240" stroke="#24324f" stroke-width="1.4" rx="16" ry="16" />
<line x1="474" y1="250" x2="492" y2="250" stroke="#2f3e62" stroke-width="2" stroke-linecap="round" />
<rect x="492" y="160" width="209.5" height="180" fill="#162240" stroke="#24324f" stroke-width="1.4" rx="16" ry="16" />
<line x1="707.5" y1="250" x2="725.5" y2="250" stroke="#2f3e62" stroke-width="2" stroke-linecap="round" />
<rect x="725.5" y="160" width="209.5" height="180" fill="#162240" stroke="#24324f" stroke-width="1.4" rx="16" ry="16" />
<rect x="15" y="505" width="250" height="20" fill="none" stroke="#24324f" stroke-width="1" rx="10" ry="10" />
<rect x="895" y="505" width="50" height="20" fill="none" stroke="#24324f" stroke-width="1" rx="10" ry="10" />
<text x="902.5" y="42.32" fill="#cbd5f5" font-size="12" font-family="Inter, 'Noto Sans JP', sans-serif" text-anchor="middle">Logo</text>
<text x="440" y="58.35" fill="#f8fafc" font-size="16.25" font-family="Inter, 'Noto Sans JP', sans-serif" text-anchor="middle">Title</text>
<text x="480" y="114.32" fill="#cbd5f5" font-size="12" font-family="Inter, 'Noto Sans JP', sans-serif" text-anchor="middle">Subhead</text>
<text x="129.75" y="258.64" fill="#f8fafc" font-size="24" font-family="Inter, 'Noto Sans JP', sans-serif" text-anchor="middle">Step 1</text>
<text x="363.25" y="258.64" fill="#f8fafc" font-size="24" font-family="Inter, 'Noto Sans JP', sans-serif" text-anchor="middle">Step 2</text>
<text x="596.75" y="258.64" fill="#f8fafc" font-size="24" font-family="Inter, 'Noto Sans JP', sans-serif" text-anchor="middle">Step 3</text>
<text x="830.25" y="258.64" fill="#f8fafc" font-size="24" font-family="Inter, 'Noto Sans JP', sans-serif" text-anchor="middle">Step 4</text>
<text x="140" y="519.32" fill="#8aa0c8" font-size="12" font-family="Inter, 'Noto Sans JP', sans-serif" text-anchor="middle">Footer</text>
<text x="920" y="519.32" fill="#8aa0c8" font-size="12" font-family="Inter, 'Noto Sans JP', sans-serif" text-anchor="middle">Page</text>
<title>Flow Chart</title>
</svg>